<svg width="20" height="20" viewBox="0 0 20 20" fill="none" xmlns="http://www.w3.org/2000/svg">
<path d="M4.375 9.375H16.875C17.0575 9.375 17.2073 9.43354 17.3244 9.55062C17.4415 9.66771 17.5 9.8175 17.5 10C17.5 10.1825 17.4415 10.3323 17.3244 10.4494C17.2073 10.5665 17.0575 10.625 16.875 10.625H4.375C4.1925 10.625 4.04271 10.5665 3.92563 10.4494C3.80854 10.3323 3.75 10.1825 3.75 10C3.75 9.8175 3.80854 9.66771 3.92563 9.55062C4.04271 9.43354 4.1925 9.375 4.375 9.375ZM4.62875 10L9.82438 15.1756C9.94146 15.306 10 15.4558 10 15.625C10 15.7942 9.93813 15.9406 9.81437 16.0644C9.69063 16.1881 9.54417 16.25 9.375 16.25C9.20583 16.25 9.05604 16.1915 8.92562 16.0744L3.30063 10.4494C3.18354 10.319 3.125 10.1692 3.125 10C3.125 9.83083 3.18354 9.68104 3.30063 9.55062L8.92562 3.92563C9.05604 3.80854 9.20583 3.75 9.375 3.75C9.54417 3.75 9.69063 3.81187 9.81437 3.93562C9.93813 4.05937 10 4.20583 10 4.375C10 4.54417 9.94146 4.69396 9.82438 4.82437L4.62875 10Z" fill="white"/>
</svg>
