<svg width="18" height="22" viewBox="0 0 18 22" fill="none" xmlns="http://www.w3.org/2000/svg">
<path d="M18 17.9631C18 21.5809 12.8638 22 9 22C8.61057 22 8.22679 21.9945 7.84981 21.9835C7.40151 21.9725 7.0483 21.6084 7.06189 21.1717C7.07434 20.7361 7.46151 20.4083 7.89623 20.405C8.25849 20.4149 8.62642 20.4193 9 20.4193C13.8928 20.4193 16.3743 19.5933 16.3743 17.9631C16.3743 16.3175 13.8928 15.4827 9 15.4827C4.10717 15.4827 1.62566 16.3098 1.62566 17.9411C1.62566 18.4746 1.82038 19.2479 3.51057 19.8045C3.93623 19.9442 4.16377 20.3918 4.02 20.8043C3.87509 21.2168 3.41547 21.4423 2.98868 21.2993C0.518491 20.4864 0 19.0246 0 17.9411C0 14.396 4.92872 13.9215 8.76191 13.9037L9.42846 13.9039C11.9848 13.9166 18 14.1373 18 17.9631ZM9 0C12.3419 0 15.06 2.64213 15.06 5.88925C15.06 9.13527 12.3419 11.7774 9 11.7774C5.65811 11.7774 2.93887 9.13527 2.93887 5.88925C2.93887 2.64213 5.65811 0 9 0ZM9 1.58066C6.55472 1.58066 4.56566 3.51331 4.56566 5.88925C4.56566 8.26409 6.55472 10.1967 9 10.1967C11.4453 10.1967 13.4343 8.26409 13.4343 5.88925C13.4343 3.51331 11.4453 1.58066 9 1.58066Z" fill="#FF576E"/>
</svg>
