<svg width="17" height="17" viewBox="0 0 17 17" fill="none" xmlns="http://www.w3.org/2000/svg">
<path d="M4.78124 5.31247C4.80355 6.36399 5.16604 7.24108 5.8687 7.94374C6.57136 8.64641 7.44845 9.00889 8.49997 9.03121C9.55148 9.00889 10.4286 8.64641 11.1312 7.94374C11.8339 7.24108 12.1964 6.36399 12.2187 5.31247C12.1964 4.26096 11.8339 3.38387 11.1312 2.68121C10.4286 1.97854 9.55148 1.61605 8.49997 1.59374C7.44845 1.61605 6.57136 1.97854 5.8687 2.68121C5.16604 3.38387 4.80355 4.26096 4.78124 5.31247ZM13.8124 15.4062H2.65625C2.50112 15.4062 2.3738 15.3564 2.27428 15.2569C2.17476 15.1574 2.125 15.0301 2.125 14.8749V13.2812C2.14731 12.5286 2.40745 11.9033 2.9054 11.4054C3.40336 10.9074 4.02864 10.6473 4.78124 10.6249H12.2187C12.9713 10.6473 13.5966 10.9074 14.0945 11.4054C14.5925 11.9033 14.8526 12.5286 14.8749 13.2812V14.8749C14.8749 15.0301 14.8252 15.1574 14.7257 15.2569C14.6261 15.3564 14.4988 15.4062 14.3437 15.4062H13.8124Z" fill="#EB3738"/>
</svg>
