<svg width="11" height="12" viewBox="0 0 11 12" fill="none" xmlns="http://www.w3.org/2000/svg">
<path d="M6.86119 11.036C6.59676 11.036 6.35036 11.024 6.12199 10.9999C5.90563 10.9879 5.75539 10.9819 5.67125 10.9819H5.22052C5.11234 10.9699 4.93806 10.9639 4.69766 10.9639C4.36111 10.9639 4.12072 10.9158 3.97649 10.8197C3.79619 10.6874 3.70605 9.42137 3.70605 9.02472C3.70605 9.0127 3.71206 9.00068 3.72408 8.98866C3.73609 8.96462 3.7421 8.93458 3.7421 8.89852C3.7421 8.79034 3.74811 8.70019 3.76013 8.62808L3.83225 8.2134C3.83225 8.1533 3.80821 8.00306 3.76013 7.76266L3.7421 7.49222C3.7421 7.44414 3.73609 7.40809 3.72408 7.38405C3.71206 7.34799 3.70605 7.32395 3.70605 7.31193H2.02931C1.63266 7.34799 0.342559 7.28789 0.162265 7.13163C0.0781275 7.08356 0.0360588 6.97538 0.0360588 6.8071V4.78781C0.0120196 4.65559 0 4.4152 0 4.06663C0 3.97048 0.0540882 3.86831 0.162265 3.76013C0.282461 3.66398 0.390637 3.6159 0.486794 3.6159H3.70605V2.02931C3.70605 1.5966 3.77816 0.3065 3.9224 0.162265C3.97048 0.0781275 4.07865 0.0360589 4.24693 0.0360589C4.58348 0.0360589 4.82387 0.0240393 4.9681 0H6.95134C7.07154 0 7.17971 0.060098 7.27587 0.180294C7.38405 0.28847 7.43813 1.39227 7.43813 1.48843V3.65196C7.93094 3.68802 8.41773 3.70605 8.89852 3.70605C9.24709 3.70605 10.4951 3.73009 10.6394 3.77816C10.8797 3.85028 10.9999 3.98851 10.9999 4.19284L10.9819 5.36475C10.9699 5.46091 10.9639 5.61716 10.9639 5.83352V6.32031C10.9639 6.52464 10.9519 6.6809 10.9278 6.78908C10.9158 6.89725 10.8797 6.98139 10.8197 7.04149C10.6995 7.22178 9.44541 7.31193 9.06078 7.31193H7.38405C7.38405 7.49222 7.37203 7.76266 7.34799 8.12325V8.91655C7.34799 9.2531 7.32395 10.4951 7.27587 10.6394C7.17971 10.9038 7.04149 11.036 6.86119 11.036Z" fill="white"/>
</svg>
